<?xml version="1.0" encoding="utf-8"?>
<svg viewBox="9.6631 -0.0001 466.6796 466.6796" xmlns="http://www.w3.org/2000/svg">
  <g style="" transform="matrix(23.333982467651367, 0, 0, 23.333982467651367, -5003.059644863897, -3979.2373639827565)">
    <path d="M 216.289 189.07 C 217.754 190.534 220.111 190.534 224.825 190.534 C 229.539 190.534 231.896 190.534 233.36 189.07 C 234.825 187.605 234.825 185.248 234.825 180.534 C 234.825 175.82 234.825 173.463 233.36 171.999 C 231.896 170.534 229.539 170.534 224.825 170.534 C 220.111 170.534 217.754 170.534 216.289 171.999 C 214.825 173.463 214.825 175.82 214.825 180.534 C 214.825 185.248 214.825 187.605 216.289 189.07 Z" style="fill: rgb(121, 145, 221);"/>
    <path d="M 223.456 173.657 C 221.661 173.657 220.206 175.112 220.206 176.907 C 220.206 178.702 221.661 180.157 223.456 180.157 C 225.251 180.157 226.706 178.702 226.706 176.907 C 226.706 176.493 227.042 176.157 227.456 176.157 C 227.87 176.157 228.206 176.493 228.206 176.907 C 228.206 179.531 226.079 181.657 223.456 181.657 C 220.832 181.657 218.706 179.531 218.706 176.907 C 218.706 174.284 220.832 172.157 223.456 172.157 C 223.87 172.157 224.206 172.493 224.206 172.907 C 224.206 173.321 223.87 173.657 223.456 173.657 Z" fill="#1C274C" style="transform-box: fill-box; transform-origin: 50% 50%;" transform="matrix(0.320089, 0.947388, -0.947388, 0.320089, -0.000001, 0.000001)"/>
    <path d="M 230.614 181.587 C 230.614 183.382 229.159 184.837 227.364 184.837 C 226.95 184.837 226.614 185.173 226.614 185.587 C 226.614 186.001 226.95 186.337 227.364 186.337 C 229.987 186.337 232.114 184.211 232.114 181.587 C 232.114 178.964 229.987 176.837 227.364 176.837 C 224.74 176.837 222.614 178.964 222.614 181.587 C 222.614 182.001 222.95 182.337 223.364 182.337 C 223.778 182.337 224.114 182.001 224.114 181.587 C 224.114 179.792 225.569 178.337 227.364 178.337 C 229.159 178.337 230.614 179.792 230.614 181.587 Z" fill="#1C274C" style="transform-box: fill-box; transform-origin: 50% 50%;" transform="matrix(0.573731, 0.819044, -0.819044, 0.573731, 0, 0)"/>
    <path fill="#1C274C" style="transform-box: fill-box; transform-origin: 50% 50%;" transform="matrix(0.320089, 0.947388, -0.947388, 0.320089, 0.000003, -0.000007)"/>
    <path d="M 218.714 176.584 L 220.194 176.584 L 220.194 187.666 C 220.202 189.037 218.72 189.041 218.714 187.666 L 218.714 176.584" style="stroke: rgb(0, 0, 0); stroke-width: 0px; fill: rgb(28, 39, 76);"/>
  </g>
</svg>