<?xml version="1.0" encoding="utf-8"?>
<svg viewBox="41.0597 27.4595 436.0713 119.0442" xmlns="http://www.w3.org/2000/svg">
  <g style="" transform="matrix(5.952209949493408, 0, 0, 5.952209949493408, -1237.6237977389067, -987.594680243651)">
    <path d="M 216.289 189.07 C 217.754 190.534 220.111 190.534 224.825 190.534 C 229.539 190.534 231.896 190.534 233.36 189.07 C 234.825 187.605 234.825 185.248 234.825 180.534 C 234.825 175.82 234.825 173.463 233.36 171.999 C 231.896 170.534 229.539 170.534 224.825 170.534 C 220.111 170.534 217.754 170.534 216.289 171.999 C 214.825 173.463 214.825 175.82 214.825 180.534 C 214.825 185.248 214.825 187.605 216.289 189.07 Z" style="fill: rgb(121, 145, 221);"/>
    <path d="M 223.456 173.657 C 221.661 173.657 220.206 175.112 220.206 176.907 C 220.206 178.702 221.661 180.157 223.456 180.157 C 225.251 180.157 226.706 178.702 226.706 176.907 C 226.706 176.493 227.042 176.157 227.456 176.157 C 227.87 176.157 228.206 176.493 228.206 176.907 C 228.206 179.531 226.079 181.657 223.456 181.657 C 220.832 181.657 218.706 179.531 218.706 176.907 C 218.706 174.284 220.832 172.157 223.456 172.157 C 223.87 172.157 224.206 172.493 224.206 172.907 C 224.206 173.321 223.87 173.657 223.456 173.657 Z" fill="#1C274C" style="transform-box: fill-box; transform-origin: 50% 50%;" transform="matrix(0.320089, 0.947388, -0.947388, 0.320089, -0.000001, 0.000001)"/>
    <path d="M 230.614 181.587 C 230.614 183.382 229.159 184.837 227.364 184.837 C 226.95 184.837 226.614 185.173 226.614 185.587 C 226.614 186.001 226.95 186.337 227.364 186.337 C 229.987 186.337 232.114 184.211 232.114 181.587 C 232.114 178.964 229.987 176.837 227.364 176.837 C 224.74 176.837 222.614 178.964 222.614 181.587 C 222.614 182.001 222.95 182.337 223.364 182.337 C 223.778 182.337 224.114 182.001 224.114 181.587 C 224.114 179.792 225.569 178.337 227.364 178.337 C 229.159 178.337 230.614 179.792 230.614 181.587 Z" fill="#1C274C" style="transform-box: fill-box; transform-origin: 50% 50%;" transform="matrix(0.573731, 0.819044, -0.819044, 0.573731, 0, 0)"/>
    <path fill="#1C274C" style="transform-box: fill-box; transform-origin: 50% 50%;" transform="matrix(0.320089, 0.947388, -0.947388, 0.320089, 0.000003, -0.000007)"/>
    <path d="M 222.312 186.402 C 222.465 186.59 222.782 186.759 223.103 186.956 C 223.259 187.053 223.458 187.14 223.613 187.251 C 223.692 187.307 223.768 187.378 223.817 187.459 C 223.843 187.503 223.871 187.57 223.884 187.631 C 223.897 187.694 223.897 187.792 223.888 187.865 C 223.866 187.966 223.813 188.066 223.76 188.084 C 223.715 188.1 223.652 188.084 223.588 188.053 C 223.463 187.994 223.285 187.865 223.043 187.717 C 222.554 187.416 221.989 187.017 221.813 186.895 C 221.759 186.857 221.715 186.815 221.691 186.777 C 221.675 186.753 221.655 186.704 221.648 186.666 C 221.639 186.617 221.647 186.525 221.661 186.486 C 221.691 186.402 221.786 186.353 221.864 186.336 C 222.015 186.306 222.247 186.335 222.312 186.402 Z M 221.948 186.646 C 222.178 186.807 222.665 187.145 223.092 187.408 C 223.338 187.56 223.512 187.684 223.627 187.739 C 223.682 187.766 223.711 187.773 223.732 187.766 C 223.732 187.766 223.732 187.766 223.733 187.766 C 223.736 187.756 223.734 187.767 223.731 187.753 C 223.728 187.735 223.726 187.73 223.711 187.706 C 223.678 187.652 223.628 187.606 223.557 187.555 C 223.412 187.451 223.217 187.365 223.054 187.265 C 222.736 187.069 222.4 186.884 222.226 186.677 C 222.204 186.64 222.072 186.63 221.948 186.646 Z" style="fill: none; transform-box: fill-box; transform-origin: 50% 50%;" transform="matrix(0.320089, 0.947388, -0.947388, 0.320089, 0.000001, 0)"/>
    <path d="M 218.714 176.584 L 220.194 176.584 L 220.194 187.666 C 220.202 189.037 218.72 189.041 218.714 187.666 L 218.714 176.584" style="stroke: rgb(0, 0, 0); stroke-width: 0px; fill: rgb(28, 39, 76);"/>
  </g>
  <path d="M 174.804 110.81 L 174.804 64.265 L 194.031 64.265 Q 199.258 64.265 203.065 66.299 Q 206.872 68.333 208.94 71.958 Q 211.008 75.583 211.008 80.378 Q 211.008 85.196 208.906 88.799 Q 206.804 92.401 202.917 94.378 Q 199.031 96.355 193.69 96.355 L 181.826 96.355 L 181.826 87.492 L 191.599 87.492 Q 194.145 87.492 195.861 86.605 Q 197.576 85.719 198.463 84.117 Q 199.349 82.515 199.349 80.378 Q 199.349 78.219 198.463 76.64 Q 197.576 75.06 195.849 74.196 Q 194.122 73.333 191.599 73.333 L 186.054 73.333 L 186.054 110.81 Z M 214.418 110.81 L 214.418 75.901 L 225.214 75.901 L 225.214 82.265 L 225.578 82.265 Q 226.532 78.81 228.691 77.117 Q 230.85 75.424 233.714 75.424 Q 234.487 75.424 235.305 75.526 Q 236.123 75.628 236.828 75.833 L 236.828 85.492 Q 236.032 85.219 234.748 85.06 Q 233.464 84.901 232.464 84.901 Q 230.487 84.901 228.907 85.776 Q 227.328 86.651 226.43 88.208 Q 225.532 89.765 225.532 91.855 L 225.532 110.81 Z M 247.798 111.401 Q 244.457 111.401 241.878 110.276 Q 239.298 109.151 237.81 106.867 Q 236.321 104.583 236.321 101.128 Q 236.321 98.219 237.344 96.219 Q 238.366 94.219 240.162 92.969 Q 241.957 91.719 244.298 91.071 Q 246.639 90.424 249.298 90.196 Q 252.275 89.924 254.094 89.617 Q 255.912 89.31 256.741 88.73 Q 257.571 88.151 257.571 87.083 L 257.571 86.969 Q 257.571 85.219 256.366 84.265 Q 255.162 83.31 253.116 83.31 Q 250.912 83.31 249.571 84.265 Q 248.23 85.219 247.866 86.901 L 237.616 86.537 Q 238.071 83.355 239.969 80.844 Q 241.866 78.333 245.196 76.89 Q 248.525 75.446 253.207 75.446 Q 256.548 75.446 259.366 76.23 Q 262.185 77.015 264.275 78.503 Q 266.366 79.992 267.514 82.151 Q 268.662 84.31 268.662 87.083 L 268.662 110.81 L 258.207 110.81 L 258.207 105.946 L 257.935 105.946 Q 257.003 107.719 255.56 108.946 Q 254.116 110.174 252.173 110.787 Q 250.23 111.401 247.798 111.401 Z M 251.23 104.128 Q 253.025 104.128 254.469 103.401 Q 255.912 102.674 256.775 101.39 Q 257.639 100.105 257.639 98.401 L 257.639 95.083 Q 257.162 95.333 256.491 95.537 Q 255.821 95.742 255.025 95.924 Q 254.23 96.105 253.389 96.242 Q 252.548 96.378 251.775 96.492 Q 250.207 96.742 249.105 97.265 Q 248.003 97.787 247.423 98.617 Q 246.844 99.446 246.844 100.583 Q 246.844 102.31 248.082 103.219 Q 249.321 104.128 251.23 104.128 Z M 289.63 111.469 Q 284.107 111.469 280.164 109.196 Q 276.221 106.924 274.107 102.867 Q 271.993 98.81 271.993 93.469 Q 271.993 88.105 274.118 84.049 Q 276.243 79.992 280.187 77.719 Q 284.13 75.446 289.607 75.446 Q 294.448 75.446 298.05 77.196 Q 301.652 78.946 303.687 82.14 Q 305.721 85.333 305.834 89.628 L 295.448 89.628 Q 295.13 86.946 293.641 85.424 Q 292.152 83.901 289.766 83.901 Q 287.834 83.901 286.38 84.98 Q 284.925 86.06 284.118 88.162 Q 283.312 90.265 283.312 93.355 Q 283.312 96.446 284.118 98.571 Q 284.925 100.696 286.38 101.776 Q 287.834 102.855 289.766 102.855 Q 291.312 102.855 292.505 102.196 Q 293.698 101.537 294.471 100.253 Q 295.243 98.969 295.448 97.128 L 305.834 97.128 Q 305.675 101.446 303.687 104.674 Q 301.698 107.901 298.118 109.685 Q 294.539 111.469 289.63 111.469 Z M 329.141 75.901 L 329.141 84.083 L 307.118 84.083 L 307.118 75.901 Z M 311.732 67.537 L 322.845 67.537 L 322.845 99.833 Q 322.845 100.855 323.175 101.48 Q 323.505 102.105 324.141 102.367 Q 324.777 102.628 325.664 102.628 Q 326.3 102.628 327.016 102.503 Q 327.732 102.378 328.095 102.287 L 329.777 110.31 Q 328.982 110.537 327.539 110.878 Q 326.095 111.219 324.095 111.31 Q 320.186 111.492 317.402 110.39 Q 314.618 109.287 313.152 106.946 Q 311.686 104.605 311.732 101.06 Z M 332.713 110.81 L 332.713 75.901 L 343.826 75.901 L 343.826 110.81 Z M 338.281 71.833 Q 335.94 71.833 334.258 70.276 Q 332.576 68.719 332.576 66.515 Q 332.576 64.333 334.258 62.776 Q 335.94 61.219 338.281 61.219 Q 340.644 61.219 342.315 62.776 Q 343.985 64.333 343.985 66.515 Q 343.985 68.719 342.315 70.276 Q 340.644 71.833 338.281 71.833 Z M 365.072 111.469 Q 359.549 111.469 355.606 109.196 Q 351.662 106.924 349.549 102.867 Q 347.435 98.81 347.435 93.469 Q 347.435 88.105 349.56 84.049 Q 351.685 79.992 355.628 77.719 Q 359.572 75.446 365.049 75.446 Q 369.89 75.446 373.492 77.196 Q 377.094 78.946 379.128 82.14 Q 381.162 85.333 381.276 89.628 L 370.89 89.628 Q 370.572 86.946 369.083 85.424 Q 367.594 83.901 365.208 83.901 Q 363.276 83.901 361.822 84.98 Q 360.367 86.06 359.56 88.162 Q 358.753 90.265 358.753 93.355 Q 358.753 96.446 359.56 98.571 Q 360.367 100.696 361.822 101.776 Q 363.276 102.855 365.208 102.855 Q 366.753 102.855 367.947 102.196 Q 369.14 101.537 369.912 100.253 Q 370.685 98.969 370.89 97.128 L 381.276 97.128 Q 381.117 101.446 379.128 104.674 Q 377.14 107.901 373.56 109.685 Q 369.981 111.469 365.072 111.469 Z M 407.401 95.742 L 407.401 75.901 L 418.492 75.901 L 418.492 110.81 L 407.901 110.81 L 407.901 104.31 L 407.537 104.31 Q 406.378 107.515 403.594 109.39 Q 400.81 111.265 396.878 111.265 Q 393.31 111.265 390.605 109.628 Q 387.901 107.992 386.401 105.049 Q 384.901 102.105 384.878 98.151 L 384.878 75.901 L 395.992 75.901 L 395.992 95.969 Q 396.014 98.81 397.492 100.446 Q 398.969 102.083 401.514 102.083 Q 403.174 102.083 404.503 101.344 Q 405.833 100.605 406.617 99.185 Q 407.401 97.765 407.401 95.742 Z M 423.455 110.81 L 423.455 75.901 L 434.023 75.901 L 434.023 82.31 L 434.41 82.31 Q 435.501 79.128 438.092 77.287 Q 440.683 75.446 444.273 75.446 Q 447.91 75.446 450.501 77.31 Q 453.092 79.174 453.796 82.31 L 454.16 82.31 Q 455.137 79.196 457.978 77.321 Q 460.819 75.446 464.683 75.446 Q 469.637 75.446 472.728 78.617 Q 475.819 81.787 475.819 87.31 L 475.819 110.81 L 464.705 110.81 L 464.705 89.855 Q 464.705 87.242 463.364 85.867 Q 462.023 84.492 459.887 84.492 Q 457.592 84.492 456.285 85.98 Q 454.978 87.469 454.978 89.969 L 454.978 110.81 L 444.296 110.81 L 444.296 89.742 Q 444.296 87.31 442.978 85.901 Q 441.66 84.492 439.501 84.492 Q 438.046 84.492 436.933 85.185 Q 435.819 85.878 435.194 87.151 Q 434.569 88.424 434.569 90.151 L 434.569 110.81 Z" style="fill: rgb(28, 39, 76);"/>
</svg>